<?xml version="1.0" standalone="no"?>
<!DOCTYPE svg PUBLIC "-//W3C//DTD SVG 20010904//EN"
 "http://www.w3.org/TR/2001/REC-SVG-20010904/DTD/svg10.dtd">
<svg version="1.0" xmlns="http://www.w3.org/2000/svg"
 width="512.000000pt" height="512.000000pt" viewBox="0 0 512.000000 512.000000"
 preserveAspectRatio="xMidYMid meet">

<g transform="translate(0.000000,512.000000) scale(0.100000,-0.100000)"
fill="#fcc2d7" stroke="none">
<path d="M375 3267 c-179 -46 -332 -222 -365 -419 -26 -152 8 -331 88 -463 54
-89 170 -198 331 -309 79 -55 180 -128 224 -163 128 -100 167 -98 314 15 55
42 155 115 223 162 250 172 356 310 396 518 28 149 11 283 -53 404 -137 261
-440 344 -686 188 l-47 -30 -47 30 c-107 68 -265 96 -378 67z m185 -325 c42
-22 80 -90 80 -145 0 -88 72 -161 160 -161 93 0 152 64 163 176 7 68 32 109
83 133 46 22 111 16 152 -14 52 -37 77 -103 77 -201 -1 -158 -57 -232 -306
-406 -79 -54 -149 -103 -156 -107 -16 -10 -302 185 -379 260 -68 65 -103 138
-111 231 -15 180 108 301 237 234z"/>
<path d="M2135 3267 c-179 -46 -332 -222 -365 -419 -26 -152 8 -331 88 -463
54 -89 170 -198 331 -309 79 -55 180 -128 224 -163 128 -100 167 -98 314 15
55 42 155 115 223 162 250 172 356 310 396 518 28 149 11 283 -53 404 -137
261 -440 344 -686 188 l-47 -30 -47 30 c-107 68 -265 96 -378 67z m185 -325
c42 -22 80 -90 80 -145 0 -88 72 -161 160 -161 93 0 152 64 163 176 7 68 32
109 83 133 46 22 111 16 152 -14 52 -37 77 -103 77 -201 -1 -160 -55 -231
-307 -406 -78 -55 -148 -103 -155 -107 -16 -10 -302 185 -379 260 -68 65 -103
138 -111 231 -15 180 108 301 237 234z"/>
<path d="M3895 3267 c-179 -46 -332 -222 -365 -419 -26 -152 8 -331 88 -463
54 -89 170 -198 331 -309 79 -55 180 -128 224 -163 128 -100 167 -98 314 15
55 42 155 115 223 162 250 172 356 310 396 518 28 149 11 283 -53 404 -137
261 -440 344 -686 188 l-47 -30 -47 30 c-107 68 -265 96 -378 67z m185 -325
c42 -22 80 -90 80 -145 0 -88 72 -161 160 -161 93 0 152 64 163 176 7 68 32
109 83 133 46 22 111 16 152 -14 52 -37 77 -103 77 -201 -1 -160 -55 -231
-307 -406 -78 -55 -148 -103 -155 -107 -16 -10 -302 185 -379 260 -68 65 -103
138 -111 231 -15 180 108 301 237 234z"/>
</g>
</svg>
