<?xml version="1.0" standalone="no"?>
<!DOCTYPE svg PUBLIC "-//W3C//DTD SVG 20010904//EN"
 "http://www.w3.org/TR/2001/REC-SVG-20010904/DTD/svg10.dtd">
<svg version="1.0" xmlns="http://www.w3.org/2000/svg"
 width="512.000000pt" height="512.000000pt" viewBox="0 0 512.000000 512.000000"
 preserveAspectRatio="xMidYMid meet">

<g transform="translate(0.000000,512.000000) scale(0.100000,-0.100000)"
fill="#ffffff" stroke="none">
<path d="M2679 5105 c-145 -29 -269 -96 -379 -205 -87 -86 -146 -180 -187
-295 l-28 -80 -3 -1102 -2 -1102 -65 -51 c-223 -177 -383 -448 -445 -750 -28
-136 -28 -354 0 -491 53 -258 175 -475 377 -670 350 -337 829 -444 1295 -289
373 124 671 430 797 819 82 248 82 561 1 801 -74 221 -225 438 -404 580 l-56
45 0 1015 c0 593 -4 1054 -10 1108 -12 114 -48 224 -102 317 -49 83 -170 206
-251 254 -166 98 -357 132 -538 96z m256 -300 c150 -39 260 -141 318 -294 22
-56 22 -59 25 -1208 l3 -1152 44 -25 c236 -139 415 -401 465 -682 20 -114 9
-328 -24 -437 -91 -303 -323 -550 -614 -652 -418 -146 -905 22 -1151 399 -103
158 -150 322 -151 524 0 195 39 341 137 507 58 99 217 263 320 329 l73 47 2
1162 3 1162 36 75 c95 198 307 298 514 245z"/>
<path d="M2680 2947 l0 -1133 -66 -28 c-137 -60 -244 -169 -301 -308 -34 -84
-43 -233 -19 -328 64 -252 272 -414 531 -414 250 1 446 143 521 378 83 263
-33 534 -279 656 l-87 43 0 1134 0 1133 -150 0 -150 0 0 -1133z m269 -1452
c80 -44 122 -118 122 -215 1 -97 -48 -176 -136 -223 -56 -30 -164 -30 -221 0
-47 25 -101 82 -120 129 -19 44 -18 146 2 192 26 63 90 119 164 143 46 15 135
3 189 -26z"/>
<path d="M1020 3970 l0 -150 380 0 380 0 0 150 0 150 -380 0 -380 0 0 -150z"/>
<path d="M1020 3370 l0 -150 380 0 380 0 0 150 0 150 -380 0 -380 0 0 -150z"/>
<path d="M1020 2770 l0 -150 380 0 380 0 0 150 0 150 -380 0 -380 0 0 -150z"/>
</g>
</svg>
